<svg width="20" height="20" viewBox="0 0 20 20" fill="none" xmlns="http://www.w3.org/2000/svg">
<path fill-rule="evenodd" clip-rule="evenodd" d="M7.70831 7.50004C7.70831 6.23439 8.73431 5.20837 9.99998 5.20837C11.2656 5.20837 12.2916 6.23439 12.2916 7.50004C12.2916 8.76571 11.2656 9.79171 9.99998 9.79171C8.73431 9.79171 7.70831 8.76571 7.70831 7.50004ZM9.99998 6.45837C9.42465 6.45837 8.95831 6.92474 8.95831 7.50004C8.95831 8.07534 9.42465 8.54171 9.99998 8.54171C10.5753 8.54171 11.0416 8.07534 11.0416 7.50004C11.0416 6.92474 10.5753 6.45837 9.99998 6.45837Z" fill="#CACDCD"/>
<path fill-rule="evenodd" clip-rule="evenodd" d="M10 10.2084C9.0035 10.2084 8.07051 10.409 7.36347 10.7625C6.69382 11.0974 6.04167 11.6755 6.04167 12.5L6.04156 12.5521C6.04028 12.9774 6.03813 13.6935 6.71686 14.1849C7.03182 14.4128 7.44742 14.5582 7.96224 14.6509C8.48183 14.7444 9.14767 14.7917 10 14.7917C10.8523 14.7917 11.5182 14.7444 12.0377 14.6509C12.5526 14.5582 12.9682 14.4128 13.2832 14.1849C13.9618 13.6935 13.9597 12.9774 13.9584 12.5521L13.9583 12.5C13.9583 11.6755 13.3062 11.0974 12.6365 10.7625C11.9295 10.409 10.9965 10.2084 10 10.2084ZM7.29167 12.5C7.29167 12.404 7.38571 12.149 7.92248 11.8805C8.42192 11.6309 9.1555 11.4584 10 11.4584C10.8445 11.4584 11.5781 11.6309 12.0775 11.8805C12.6142 12.149 12.7083 12.404 12.7083 12.5C12.7083 13.0038 12.6762 13.081 12.5502 13.1723C12.4485 13.2459 12.2391 13.3445 11.8164 13.4206C11.3985 13.4958 10.8143 13.5417 10 13.5417C9.18567 13.5417 8.6015 13.4958 8.18359 13.4206C7.76092 13.3445 7.55152 13.2459 7.44981 13.1723C7.32374 13.081 7.29167 13.0038 7.29167 12.5Z" fill="#CACDCD"/>
<path fill-rule="evenodd" clip-rule="evenodd" d="M7.26949 1.70923C8.47275 1.29711 9.21875 1.04163 10 1.04163C10.7812 1.04163 11.5272 1.29711 12.7305 1.70923L13.3367 1.91673C14.5712 2.33929 15.5238 2.66539 16.2058 2.94245C16.5493 3.08201 16.8447 3.21718 17.0825 3.3553C17.3114 3.48821 17.541 3.65399 17.697 3.87624C17.8512 4.09593 17.9309 4.36599 17.981 4.62598C18.0331 4.89626 18.0645 5.22049 18.0847 5.59276C18.125 6.33196 18.125 7.34463 18.125 8.65813V9.99279C18.125 15.077 14.285 17.5145 12.0014 18.5121L11.9788 18.522C11.6957 18.6457 11.4295 18.762 11.1237 18.8403C10.8007 18.923 10.4577 18.9583 10 18.9583C9.54225 18.9583 9.19925 18.923 8.87633 18.8403C8.5705 18.762 8.30436 18.6457 8.02119 18.522L7.99861 18.5121C5.71502 17.5145 1.875 15.077 1.875 9.99279V8.65821C1.875 7.34478 1.875 6.33193 1.91525 5.59276C1.93552 5.22049 1.96693 4.89626 2.01901 4.62598C2.06911 4.36599 2.14883 4.09593 2.30302 3.87624C2.45902 3.65399 2.68862 3.48821 2.91748 3.3553C3.15531 3.21718 3.45065 3.08201 3.79419 2.94245C4.47617 2.66539 5.42885 2.33929 6.66329 1.91674L7.26949 1.70923ZM10 2.29163C9.45192 2.29163 8.91258 2.46799 7.56718 2.92854L7.08983 3.09193C5.82934 3.52341 4.91008 3.83833 4.26466 4.10053C3.9425 4.23141 3.70908 4.34108 3.54524 4.43623C3.46435 4.48321 3.40862 4.52198 3.37139 4.55223C3.33983 4.57788 3.3278 4.59242 3.32608 4.59453C3.32447 4.59715 3.31411 4.61446 3.29952 4.65541C3.28287 4.70217 3.26441 4.7692 3.24642 4.86251C3.21003 5.05137 3.18245 5.3108 3.1634 5.66073C3.12523 6.36172 3.125 7.34023 3.125 8.68054V9.99279C3.125 14.3054 6.34992 16.4279 8.499 17.3666C8.80858 17.5019 8.98733 17.5784 9.18633 17.6293C9.37642 17.678 9.60833 17.7083 10 17.7083C10.3917 17.7083 10.6236 17.678 10.8137 17.6293C11.0127 17.5784 11.1914 17.5019 11.501 17.3666C13.6501 16.4279 16.875 14.3054 16.875 9.99279V8.68054C16.875 7.34023 16.8747 6.36172 16.8366 5.66073C16.8176 5.3108 16.79 5.05137 16.7536 4.86251C16.7356 4.7692 16.7172 4.70217 16.7005 4.65541C16.6859 4.61443 16.6755 4.59713 16.6739 4.59453C16.6722 4.59239 16.6602 4.57787 16.6286 4.55223C16.5914 4.52198 16.5357 4.48321 16.4548 4.43623C16.2909 4.34108 16.0575 4.23141 15.7353 4.10053C15.0899 3.83833 14.1707 3.52341 12.9102 3.09193L12.4328 2.92854C11.0874 2.46799 10.5481 2.29163 10 2.29163Z" fill="#CACDCD"/>
</svg>
