<svg width="48" height="48" viewBox="0 0 48 48" fill="none" xmlns="http://www.w3.org/2000/svg">
<path d="M41.5873 32.9888C40.5467 31.1963 38.9998 26.1244 38.9998 19.5C38.9998 15.5218 37.4194 11.7064 34.6064 8.8934C31.7933 6.08035 27.978 4.5 23.9998 4.5C20.0215 4.5 16.2062 6.08035 13.3932 8.8934C10.5801 11.7064 8.99978 15.5218 8.99978 19.5C8.99978 26.1262 7.45103 31.1963 6.4104 32.9888C6.14466 33.4445 6.00378 33.9622 6.00197 34.4897C6.00016 35.0172 6.13748 35.5359 6.40009 35.9934C6.6627 36.4509 7.0413 36.8311 7.49773 37.0956C7.95415 37.3601 8.47225 37.4996 8.99978 37.5H16.6517C16.9977 39.1934 17.9181 40.7153 19.257 41.8083C20.596 42.9013 22.2714 43.4983 23.9998 43.4983C25.7282 43.4983 27.4036 42.9013 28.7425 41.8083C30.0815 40.7153 31.0018 39.1934 31.3479 37.5H38.9998C39.5271 37.4993 40.045 37.3596 40.5012 37.0949C40.9573 36.8303 41.3357 36.4501 41.5981 35.9926C41.8605 35.5351 41.9976 35.0166 41.9957 34.4892C41.9938 33.9619 41.8529 33.4443 41.5873 32.9888ZM23.9998 40.5C23.0694 40.4997 22.1621 40.2111 21.4025 39.6738C20.643 39.1366 20.0686 38.3771 19.7585 37.5H28.241C27.9309 38.3771 27.3566 39.1366 26.597 39.6738C25.8375 40.2111 24.9301 40.4997 23.9998 40.5Z" fill="#FBE9D0"/>
</svg>
