<svg width="36" height="40" viewBox="0 0 36 40" fill="none" xmlns="http://www.w3.org/2000/svg">
<path d="M35.5873 28.9888C34.5467 27.1963 32.9998 22.1244 32.9998 15.5C32.9998 11.5218 31.4194 7.70644 28.6064 4.8934C25.7933 2.08035 21.978 0.5 17.9998 0.5C14.0215 0.5 10.2062 2.08035 7.39318 4.8934C4.58013 7.70644 2.99978 11.5218 2.99978 15.5C2.99978 22.1262 1.45103 27.1963 0.410405 28.9888C0.144662 29.4445 0.0037818 29.9622 0.00197081 30.4897C0.000159813 31.0172 0.137482 31.5359 0.40009 31.9934C0.662698 32.4509 1.0413 32.8311 1.49773 33.0956C1.95415 33.3601 2.47225 33.4996 2.99978 33.5H10.6517C10.9977 35.1934 11.9181 36.7153 13.257 37.8083C14.596 38.9013 16.2714 39.4983 17.9998 39.4983C19.7282 39.4983 21.4036 38.9013 22.7425 37.8083C24.0815 36.7153 25.0018 35.1934 25.3479 33.5H32.9998C33.5271 33.4993 34.045 33.3596 34.5012 33.0949C34.9573 32.8303 35.3357 32.4501 35.5981 31.9926C35.8605 31.5351 35.9976 31.0166 35.9957 30.4892C35.9938 29.9619 35.8529 29.4443 35.5873 28.9888ZM17.9998 36.5C17.0694 36.4997 16.1621 36.2111 15.4025 35.6738C14.643 35.1366 14.0686 34.3771 13.7585 33.5H22.241C21.9309 34.3771 21.3566 35.1366 20.597 35.6738C19.8375 36.2111 18.9301 36.4997 17.9998 36.5Z" fill="#FBE9D0"/>
</svg>
