<svg width="18" height="18" viewBox="0 0 18 18" fill="none" xmlns="http://www.w3.org/2000/svg">
<path d="M17.125 16.5H15.25V1.5H15.875C16.0408 1.5 16.1997 1.43415 16.3169 1.31694C16.4342 1.19973 16.5 1.04076 16.5 0.875C16.5 0.70924 16.4342 0.550268 16.3169 0.433058C16.1997 0.315848 16.0408 0.25 15.875 0.25H2.125C1.95924 0.25 1.80027 0.315848 1.68306 0.433058C1.56585 0.550268 1.5 0.70924 1.5 0.875C1.5 1.04076 1.56585 1.19973 1.68306 1.31694C1.80027 1.43415 1.95924 1.5 2.125 1.5H2.75V16.5H0.875C0.70924 16.5 0.550268 16.5658 0.433058 16.6831C0.315848 16.8003 0.25 16.9592 0.25 17.125C0.25 17.2908 0.315848 17.4497 0.433058 17.5669C0.550268 17.6842 0.70924 17.75 0.875 17.75H17.125C17.2908 17.75 17.4497 17.6842 17.5669 17.5669C17.6842 17.4497 17.75 17.2908 17.75 17.125C17.75 16.9592 17.6842 16.8003 17.5669 16.6831C17.4497 16.5658 17.2908 16.5 17.125 16.5ZM4 1.5H14V16.5H11.5V13.375C11.5 13.2092 11.4342 13.0503 11.3169 12.9331C11.1997 12.8158 11.0408 12.75 10.875 12.75H7.125C6.95924 12.75 6.80027 12.8158 6.68306 12.9331C6.56585 13.0503 6.5 13.2092 6.5 13.375V16.5H4V1.5ZM10.25 16.5H7.75V14H10.25V16.5ZM5.875 4C5.875 3.83424 5.94085 3.67527 6.05806 3.55806C6.17527 3.44085 6.33424 3.375 6.5 3.375H7.75C7.91576 3.375 8.07473 3.44085 8.19194 3.55806C8.30915 3.67527 8.375 3.83424 8.375 4C8.375 4.16576 8.30915 4.32473 8.19194 4.44194C8.07473 4.55915 7.91576 4.625 7.75 4.625H6.5C6.33424 4.625 6.17527 4.55915 6.05806 4.44194C5.94085 4.32473 5.875 4.16576 5.875 4ZM9.625 4C9.625 3.83424 9.69085 3.67527 9.80806 3.55806C9.92527 3.44085 10.0842 3.375 10.25 3.375H11.5C11.6658 3.375 11.8247 3.44085 11.9419 3.55806C12.0592 3.67527 12.125 3.83424 12.125 4C12.125 4.16576 12.0592 4.32473 11.9419 4.44194C11.8247 4.55915 11.6658 4.625 11.5 4.625H10.25C10.0842 4.625 9.92527 4.55915 9.80806 4.44194C9.69085 4.32473 9.625 4.16576 9.625 4ZM5.875 7.125C5.875 6.95924 5.94085 6.80027 6.05806 6.68306C6.17527 6.56585 6.33424 6.5 6.5 6.5H7.75C7.91576 6.5 8.07473 6.56585 8.19194 6.68306C8.30915 6.80027 8.375 6.95924 8.375 7.125C8.375 7.29076 8.30915 7.44973 8.19194 7.56694C8.07473 7.68415 7.91576 7.75 7.75 7.75H6.5C6.33424 7.75 6.17527 7.68415 6.05806 7.56694C5.94085 7.44973 5.875 7.29076 5.875 7.125ZM9.625 7.125C9.625 6.95924 9.69085 6.80027 9.80806 6.68306C9.92527 6.56585 10.0842 6.5 10.25 6.5H11.5C11.6658 6.5 11.8247 6.56585 11.9419 6.68306C12.0592 6.80027 12.125 6.95924 12.125 7.125C12.125 7.29076 12.0592 7.44973 11.9419 7.56694C11.8247 7.68415 11.6658 7.75 11.5 7.75H10.25C10.0842 7.75 9.92527 7.68415 9.80806 7.56694C9.69085 7.44973 9.625 7.29076 9.625 7.125ZM5.875 10.25C5.875 10.0842 5.94085 9.92527 6.05806 9.80806C6.17527 9.69085 6.33424 9.625 6.5 9.625H7.75C7.91576 9.625 8.07473 9.69085 8.19194 9.80806C8.30915 9.92527 8.375 10.0842 8.375 10.25C8.375 10.4158 8.30915 10.5747 8.19194 10.6919C8.07473 10.8092 7.91576 10.875 7.75 10.875H6.5C6.33424 10.875 6.17527 10.8092 6.05806 10.6919C5.94085 10.5747 5.875 10.4158 5.875 10.25ZM9.625 10.25C9.625 10.0842 9.69085 9.92527 9.80806 9.80806C9.92527 9.69085 10.0842 9.625 10.25 9.625H11.5C11.6658 9.625 11.8247 9.69085 11.9419 9.80806C12.0592 9.92527 12.125 10.0842 12.125 10.25C12.125 10.4158 12.0592 10.5747 11.9419 10.6919C11.8247 10.8092 11.6658 10.875 11.5 10.875H10.25C10.0842 10.875 9.92527 10.8092 9.80806 10.6919C9.69085 10.5747 9.625 10.4158 9.625 10.25Z" fill="#CACDCD"/>
</svg>
