<svg width="22" height="17" viewBox="0 0 22 17" fill="none" xmlns="http://www.w3.org/2000/svg">
<path d="M21.311 4.39946L9.27352 16.437C8.99225 16.7181 8.61087 16.876 8.21321 16.876C7.81556 16.876 7.43418 16.7181 7.1529 16.437L0.438524 9.68696C0.157719 9.40573 0 9.02454 0 8.62712C0 8.2297 0.157719 7.84851 0.438524 7.56728L2.31352 5.69228C2.59465 5.41233 2.97522 5.25515 3.37196 5.25515C3.7687 5.25515 4.14928 5.41233 4.4304 5.69228L8.25071 9.39728L17.322 0.437589C17.6031 0.157356 17.9839 0 18.3809 0C18.7778 0 19.1586 0.157356 19.4398 0.437589L21.3101 2.26946C21.4507 2.40885 21.5624 2.5747 21.6386 2.75745C21.7149 2.94021 21.7542 3.13625 21.7543 3.33427C21.7543 3.53229 21.7152 3.72836 21.6391 3.91118C21.5631 4.09401 21.4516 4.25996 21.311 4.39946Z" fill="#6FC900"/>
</svg>
