<svg width="60" height="60" viewBox="0 0 60 60" fill="none" xmlns="http://www.w3.org/2000/svg">
<path d="M30 0C46.569 0 60 13.431 60 30C60 46.569 46.569 60 30 60C13.431 60 0 46.569 0 30C0 13.431 13.431 0 30 0ZM23.637 19.392C23.0984 18.8482 22.3723 18.5309 21.6074 18.505C20.8424 18.479 20.0965 18.7464 19.5223 19.2524C18.948 19.7584 18.5889 20.4648 18.5184 21.2269C18.4479 21.989 18.6713 22.7492 19.143 23.352L19.395 23.637L25.755 29.997L19.395 36.363C18.8512 36.9016 18.5339 37.6277 18.508 38.3926C18.482 39.1576 18.7494 39.9035 19.2554 40.4777C19.7614 41.052 20.4678 41.4111 21.2299 41.4816C21.992 41.5521 22.7522 41.3287 23.355 40.857L23.637 40.608L30 34.242L36.363 40.608C36.9016 41.1518 37.6277 41.4691 38.3926 41.495C39.1576 41.521 39.9035 41.2536 40.4777 40.7476C41.052 40.2416 41.4111 39.5352 41.4816 38.7731C41.5521 38.011 41.3287 37.2508 40.857 36.648L40.608 36.363L34.242 30L40.608 23.637C41.1518 23.0984 41.4691 22.3723 41.495 21.6074C41.521 20.8424 41.2536 20.0965 40.7476 19.5223C40.2416 18.948 39.5352 18.5889 38.7731 18.5184C38.011 18.4479 37.2508 18.6713 36.648 19.143L36.363 19.392L30 25.758L23.637 19.392Z" fill="#FBE9D0"/>
</svg>
