<svg width="48" height="48" viewBox="0 0 48 48" fill="none" xmlns="http://www.w3.org/2000/svg">
<g clip-path="url(#clip0_3_175)">
<path fill-rule="evenodd" clip-rule="evenodd" d="M21.1719 4.2C21.8799 3.49295 22.8272 3.07691 23.8268 3.03396C24.8265 2.99101 25.8059 3.32428 26.5719 3.968L26.8279 4.202L30.6279 8H35.9999C37.0087 8.00019 37.9802 8.38155 38.7198 9.06768C39.4593 9.75381 39.9123 10.694 39.9879 11.7L39.9999 12V17.372L43.7999 21.172C44.5075 21.8801 44.9239 22.8277 44.9669 23.8279C45.0098 24.828 44.6762 25.8079 44.0319 26.574L43.7979 26.828L39.9979 30.628V36C39.9983 37.0092 39.6171 37.9811 38.9309 38.7211C38.2448 39.4611 37.3042 39.9143 36.2979 39.99L35.9999 40H30.6299L26.8299 43.8C26.1219 44.5076 25.1742 44.924 24.1741 44.967C23.174 45.0099 22.1941 44.6763 21.4279 44.032L21.1739 43.8L17.3739 40H11.9999C10.9908 40.0003 10.0188 39.6192 9.27884 38.933C8.53888 38.2468 8.08563 37.3063 8.00994 36.3L7.99994 36V30.628L4.19994 26.828C3.49233 26.1199 3.07594 25.1723 3.03298 24.1721C2.99003 23.172 3.32364 22.1921 3.96794 21.426L4.19994 21.172L7.99994 17.372V12C8.00013 10.9912 8.38148 10.0197 9.06761 9.28017C9.75375 8.54064 10.694 8.08766 11.6999 8.012L11.9999 8H17.3719L21.1719 4.2ZM23.9999 18C22.4086 18 20.8825 18.6321 19.7573 19.7574C18.6321 20.8826 17.9999 22.4087 17.9999 24C17.9999 25.5913 18.6321 27.1174 19.7573 28.2426C20.8825 29.3679 22.4086 30 23.9999 30C25.5912 30 27.1174 29.3679 28.2426 28.2426C29.3678 27.1174 29.9999 25.5913 29.9999 24C29.9999 22.4087 29.3678 20.8826 28.2426 19.7574C27.1174 18.6321 25.5912 18 23.9999 18Z" fill="#FBE9D0"/>
</g>
<defs>
<clipPath id="clip0_3_175">
<rect width="48" height="48" fill="white"/>
</clipPath>
</defs>
</svg>
