<svg width="24" height="24" viewBox="0 0 24 24" fill="none" xmlns="http://www.w3.org/2000/svg">
<path d="M17.25 9.04053C17.25 9.23944 17.171 9.43021 17.0303 9.57086C16.8897 9.71151 16.6989 9.79053 16.5 9.79053C16.3011 9.79053 16.1103 9.71151 15.9697 9.57086C15.829 9.43021 15.75 9.23944 15.75 9.04053C15.75 8.84162 15.829 8.65085 15.9697 8.5102C16.1103 8.36955 16.3011 8.29053 16.5 8.29053C16.6989 8.29053 16.8897 8.36955 17.0303 8.5102C17.171 8.65085 17.25 8.84162 17.25 9.04053ZM15 11.2905C15.1989 11.2905 15.3897 11.2115 15.5303 11.0709C15.671 10.9302 15.75 10.7394 15.75 10.5405C15.75 10.3416 15.671 10.1508 15.5303 10.0102C15.3897 9.86955 15.1989 9.79053 15 9.79053C14.8011 9.79053 14.6103 9.86955 14.4697 10.0102C14.329 10.1508 14.25 10.3416 14.25 10.5405C14.25 10.7394 14.329 10.9302 14.4697 11.0709C14.6103 11.2115 14.8011 11.2905 15 11.2905ZM18.75 10.5405C18.75 10.7394 18.671 10.9302 18.5303 11.0709C18.3897 11.2115 18.1989 11.2905 18 11.2905C17.8011 11.2905 17.6103 11.2115 17.4697 11.0709C17.329 10.9302 17.25 10.7394 17.25 10.5405C17.25 10.3416 17.329 10.1508 17.4697 10.0102C17.6103 9.86955 17.8011 9.79053 18 9.79053C18.1989 9.79053 18.3897 9.86955 18.5303 10.0102C18.671 10.1508 18.75 10.3416 18.75 10.5405ZM16.5 12.7905C16.6989 12.7905 16.8897 12.7115 17.0303 12.5709C17.171 12.4302 17.25 12.2394 17.25 12.0405C17.25 11.8416 17.171 11.6509 17.0303 11.5102C16.8897 11.3695 16.6989 11.2905 16.5 11.2905C16.3011 11.2905 16.1103 11.3695 15.9697 11.5102C15.829 11.6509 15.75 11.8416 15.75 12.0405C15.75 12.2394 15.829 12.4302 15.9697 12.5709C16.1103 12.7115 16.3011 12.7905 16.5 12.7905ZM6.75 8.29053H8.25V9.79053H9.75V11.2905H8.25V12.7905H6.75V11.2905H5.25V9.79053H6.75V8.29053Z" fill="#FBE9D0"/>
<path d="M4.5764 4.89003C4.55078 4.79479 4.54419 4.69542 4.55702 4.59763C4.56985 4.49984 4.60185 4.40554 4.65117 4.32014C4.70049 4.23473 4.76618 4.15988 4.84446 4.09989C4.92275 4.0399 5.0121 3.99594 5.1074 3.97053L8.0054 3.19353C8.10502 3.16698 8.20906 3.16126 8.31099 3.17672C8.41293 3.19218 8.51059 3.22849 8.59786 3.28339C8.68514 3.33829 8.76015 3.41059 8.81823 3.49578C8.8763 3.58098 8.91619 3.67723 8.9354 3.77853C9.9179 3.66003 10.9604 3.60303 11.9999 3.60303C13.0799 3.60303 14.1644 3.66453 15.1799 3.79203C15.1974 3.68919 15.2362 3.59115 15.2938 3.50415C15.3514 3.41716 15.4265 3.34314 15.5143 3.28681C15.6021 3.23049 15.7007 3.1931 15.8037 3.17703C15.9068 3.16097 16.0121 3.16659 16.1129 3.19353L19.0109 3.97053C19.1215 4.00013 19.2238 4.05465 19.3101 4.12991C19.3963 4.20518 19.4642 4.29919 19.5085 4.40474C19.5528 4.51029 19.5724 4.62458 19.5657 4.73886C19.559 4.85314 19.5262 4.96437 19.4699 5.06403C19.6809 5.20003 19.8674 5.34853 20.0294 5.50953C20.6414 6.12153 21.1994 7.08453 21.6719 8.16753C22.1519 9.26703 22.5704 10.554 22.8794 11.8665C23.1884 13.179 23.3894 14.5365 23.4254 15.7755C23.4614 16.9995 23.3369 18.1785 22.9334 19.0905C22.7494 19.5 22.4407 19.8408 22.0515 20.0644C21.6622 20.288 21.2123 20.3829 20.7659 20.3355C19.8119 20.235 19.0934 19.7445 18.4964 19.176C18.1289 18.828 17.7524 18.387 17.3879 17.964C17.1989 17.742 17.0129 17.526 16.8359 17.3295C15.7439 16.1235 14.4404 15.039 11.9999 15.039C9.5594 15.039 8.2559 16.1235 7.1639 17.3295C6.9854 17.526 6.8009 17.742 6.6119 17.964C6.2474 18.387 5.8709 18.8265 5.5034 19.176C4.9064 19.746 4.1879 20.235 3.2339 20.3355C2.78751 20.3829 2.33757 20.288 1.94832 20.0644C1.55907 19.8408 1.2504 19.5 1.0664 19.0905C0.661397 18.1785 0.538397 16.998 0.572897 15.7755C0.608897 14.5365 0.812897 13.1805 1.1204 11.8665C1.4294 10.554 1.8494 9.26703 2.3279 8.16753C2.8004 7.08453 3.3584 6.12153 3.9689 5.50953C4.16462 5.31677 4.38266 5.14807 4.6184 5.00703L4.5764 4.89003ZM7.6304 5.50803C6.3149 5.78553 5.4269 6.17253 5.0309 6.57003C4.6169 6.98403 4.1504 7.74453 3.7034 8.76753C3.23099 9.88059 2.85559 11.0324 2.5814 12.21C2.29416 13.3935 2.12384 14.6023 2.0729 15.819C2.0399 16.9515 2.1659 17.871 2.4374 18.483C2.493 18.6022 2.58451 18.701 2.69911 18.7656C2.81371 18.8302 2.94564 18.8572 3.0764 18.843C3.5669 18.792 3.9914 18.5445 4.4699 18.09C4.7879 17.787 5.0699 17.4555 5.3924 17.079C5.5919 16.845 5.8064 16.5945 6.0524 16.323C7.2914 14.9535 8.9669 13.5405 11.9999 13.5405C15.0329 13.5405 16.7084 14.9535 17.9474 16.323C18.1934 16.5945 18.4079 16.845 18.6074 17.079C18.9284 17.4555 19.2119 17.787 19.5299 18.09C20.0069 18.5445 20.4314 18.792 20.9234 18.8445C21.0543 18.8586 21.1864 18.8313 21.301 18.7665C21.4156 18.7016 21.507 18.6025 21.5624 18.483C21.8324 17.871 21.9599 16.953 21.9269 15.819C21.876 14.6023 21.7056 13.3935 21.4184 12.21C21.1442 11.0324 20.7688 9.88059 20.2964 8.76753C19.8494 7.74453 19.3814 6.98253 18.9689 6.57003C18.5729 6.17253 17.6849 5.78553 16.3694 5.50803C15.0944 5.23953 13.5539 5.10303 11.9999 5.10303C10.4459 5.10303 8.9054 5.23953 7.6304 5.50803Z" fill="#FBE9D0"/>
</svg>
