<svg width="48" height="48" viewBox="0 0 48 48" fill="none" xmlns="http://www.w3.org/2000/svg">
<path d="M42.75 27V39C42.75 39.5967 42.5129 40.169 42.091 40.591C41.669 41.0129 41.0967 41.25 40.5 41.25H7.5C6.90326 41.25 6.33097 41.0129 5.90901 40.591C5.48705 40.169 5.25 39.5967 5.25 39V27C5.25 26.4033 5.48705 25.831 5.90901 25.409C6.33097 24.9871 6.90326 24.75 7.5 24.75C8.09674 24.75 8.66903 24.9871 9.09099 25.409C9.51295 25.831 9.75 26.4033 9.75 27V36.75H38.25V27C38.25 26.4033 38.4871 25.831 38.909 25.409C39.331 24.9871 39.9033 24.75 40.5 24.75C41.0967 24.75 41.669 24.9871 42.091 25.409C42.5129 25.831 42.75 26.4033 42.75 27ZM22.4081 28.5919C22.6172 28.8016 22.8655 28.9681 23.139 29.0816C23.4125 29.1952 23.7057 29.2537 24.0019 29.2537C24.298 29.2537 24.5912 29.1952 24.8647 29.0816C25.1382 28.9681 25.3866 28.8016 25.5956 28.5919L33.0956 21.0919C33.5183 20.6692 33.7558 20.0959 33.7558 19.4981C33.7558 18.9004 33.5183 18.3271 33.0956 17.9044C32.6729 17.4817 32.0996 17.2442 31.5019 17.2442C30.9041 17.2442 30.3308 17.4817 29.9081 17.9044L26.25 21.5625V6C26.25 5.40326 26.0129 4.83097 25.591 4.40901C25.169 3.98705 24.5967 3.75 24 3.75C23.4033 3.75 22.831 3.98705 22.409 4.40901C21.9871 4.83097 21.75 5.40326 21.75 6V21.5625L18.0919 17.9081C17.8826 17.6988 17.6341 17.5328 17.3607 17.4195C17.0872 17.3063 16.7941 17.248 16.4981 17.248C15.9004 17.248 15.3271 17.4854 14.9044 17.9081C14.6951 18.1174 14.5291 18.3659 14.4158 18.6393C14.3025 18.9128 14.2442 19.2059 14.2442 19.5019C14.2442 20.0996 14.4817 20.6729 14.9044 21.0956L22.4081 28.5919Z" fill="#FBE9D0"/>
</svg>
