<svg width="32" height="32" viewBox="0 0 32 32" fill="none" xmlns="http://www.w3.org/2000/svg">
<path d="M22 10C22 11.5913 21.3679 13.1174 20.2426 14.2426C19.1174 15.3679 17.5913 16 16 16C14.4087 16 12.8826 15.3679 11.7574 14.2426C10.6321 13.1174 10 11.5913 10 10C10 8.4087 10.6321 6.88258 11.7574 5.75736C12.8826 4.63214 14.4087 4 16 4C17.5913 4 19.1174 4.63214 20.2426 5.75736C21.3679 6.88258 22 8.4087 22 10ZM4 26C4 28 6 28 6 28H16.512C16.1723 27.0363 15.9991 26.0218 16 25C16 23.7139 16.2756 22.4428 16.8083 21.2722C17.3409 20.1016 18.1183 19.0588 19.088 18.214C18.1547 18.074 17.1253 18.0027 16 18C6 18 4 24 4 26ZM23.772 18.92C24.132 17.694 25.868 17.694 26.23 18.92L26.316 19.216C26.3697 19.3996 26.4639 19.5688 26.5916 19.7113C26.7194 19.8537 26.8774 19.9656 27.0541 20.0389C27.2308 20.1122 27.4217 20.145 27.6127 20.1348C27.8038 20.1246 27.9901 20.0717 28.158 19.98L28.43 19.832C29.552 19.22 30.78 20.448 30.17 21.57L30.02 21.842C29.9287 22.0098 29.8761 22.196 29.8661 22.3868C29.8561 22.5776 29.8889 22.7682 29.9622 22.9446C30.0355 23.1211 30.1473 23.2789 30.2895 23.4065C30.4317 23.5341 30.6007 23.6282 30.784 23.682L31.082 23.772C32.306 24.132 32.306 25.868 31.082 26.23L30.782 26.316C30.5987 26.3702 30.4299 26.4647 30.288 26.5926C30.146 26.7205 30.0345 26.8786 29.9616 27.0553C29.8887 27.2319 29.8563 27.4227 29.8668 27.6135C29.8772 27.8043 29.9303 27.9904 30.022 28.158L30.17 28.43C30.78 29.552 29.552 30.78 28.43 30.17L28.158 30.02C27.9902 29.9287 27.804 29.8761 27.6132 29.8661C27.4224 29.8561 27.2318 29.8889 27.0554 29.9622C26.8789 30.0355 26.7211 30.1473 26.5935 30.2895C26.4659 30.4317 26.3718 30.6007 26.318 30.784L26.228 31.082C25.868 32.306 24.132 32.306 23.77 31.082L23.684 30.782C23.6298 30.5987 23.5353 30.4299 23.4074 30.288C23.2795 30.146 23.1214 30.0345 22.9447 29.9616C22.7681 29.8887 22.5773 29.8563 22.3865 29.8668C22.1957 29.8772 22.0096 29.9303 21.842 30.022L21.57 30.17C20.448 30.78 19.22 29.552 19.83 28.43L19.98 28.158C20.0713 27.9902 20.1239 27.804 20.1339 27.6132C20.1439 27.4224 20.1111 27.2318 20.0378 27.0554C19.9645 26.8789 19.8527 26.7211 19.7105 26.5935C19.5683 26.4659 19.3993 26.3718 19.216 26.318L18.92 26.228C17.694 25.868 17.694 24.132 18.92 23.77L19.216 23.684C19.3996 23.6303 19.5688 23.5361 19.7113 23.4084C19.8537 23.2806 19.9656 23.1226 20.0389 22.9459C20.1122 22.7692 20.145 22.5783 20.1348 22.3873C20.1246 22.1962 20.0717 22.0099 19.98 21.842L19.832 21.57C19.22 20.448 20.448 19.22 21.57 19.83L21.842 19.98C22.0098 20.0713 22.196 20.1239 22.3868 20.1339C22.5776 20.1439 22.7682 20.1111 22.9446 20.0378C23.1211 19.9645 23.2789 19.8527 23.4065 19.7105C23.5341 19.5683 23.6282 19.3993 23.682 19.216L23.772 18.92ZM28 25C28 24.606 27.9224 24.2159 27.7716 23.8519C27.6209 23.488 27.3999 23.1573 27.1213 22.8787C26.8427 22.6001 26.512 22.3791 26.1481 22.2284C25.7841 22.0776 25.394 22 25 22C24.606 22 24.2159 22.0776 23.8519 22.2284C23.488 22.3791 23.1573 22.6001 22.8787 22.8787C22.6001 23.1573 22.3791 23.488 22.2284 23.8519C22.0776 24.2159 22 24.606 22 25C22 25.7956 22.3161 26.5587 22.8787 27.1213C23.4413 27.6839 24.2044 28 25 28C25.7956 28 26.5587 27.6839 27.1213 27.1213C27.6839 26.5587 28 25.7956 28 25Z" fill="#CACDCD"/>
</svg>
