<svg width="18" height="24" viewBox="0 0 18 24" fill="none" xmlns="http://www.w3.org/2000/svg">
<path d="M8.31795 12.545H4.90995V10.636H8.31995V12.546L8.31795 12.545ZM11.7279 0V6H17.7279L11.7279 0ZM13.0909 10.636H9.68095V12.546H13.0909V10.636ZM13.0909 13.909H9.68095V15.819H13.0909V13.909ZM17.7269 6.5V22.364C17.7269 23.268 16.9949 24 16.0909 24H1.90895C1.69411 24 1.48137 23.9577 1.28288 23.8755C1.08439 23.7933 0.904039 23.6727 0.752123 23.5208C0.445313 23.214 0.272949 22.7979 0.272949 22.364V1.636C0.272949 0.732 1.00495 0 1.90895 0H11.2269V6.5H17.7269ZM14.4539 9.273H3.54495V17.182H14.4549V9.272L14.4539 9.273ZM8.31795 13.909H4.90995V15.819H8.31995V13.909H8.31795Z" fill="#FBE9D0"/>
</svg>
