<svg width="20" height="20" viewBox="0 0 20 20" fill="none" xmlns="http://www.w3.org/2000/svg">
<path d="M10.0002 1.66699V6.66699C10.0002 7.58747 10.7463 8.33366 11.6668 8.33366H16.6668V16.667C16.6668 17.5875 15.9207 18.3337 15.0002 18.3337H9.3255C10.2595 17.3604 10.8335 16.0391 10.8335 14.5837C10.8335 11.5921 8.40841 9.16699 5.41683 9.16699C4.67858 9.16699 3.97482 9.31466 3.3335 9.58216V3.33366C3.3335 2.41318 4.07969 1.66699 5.00016 1.66699H10.0002ZM11.2502 2.08366V6.66699C11.2502 6.89711 11.4367 7.08366 11.6668 7.08366H16.2502L11.2502 2.08366ZM5.41683 10.0003C2.88552 10.0003 0.833496 12.0523 0.833496 14.5837C0.833496 17.115 2.88552 19.167 5.41683 19.167C7.94814 19.167 10.0002 17.115 10.0002 14.5837C10.0002 12.0523 7.94814 10.0003 5.41683 10.0003ZM7.48202 13.1097L6.00719 14.5837L7.48188 16.0584C7.6446 16.2212 7.6446 16.485 7.48188 16.6477C7.31915 16.8104 7.05534 16.8104 6.89262 16.6477L5.41776 15.1728L3.94388 16.6458C3.78116 16.8086 3.51734 16.8086 3.35462 16.6458C3.1919 16.4832 3.1919 16.2193 3.35462 16.0566L4.8285 14.5836L3.35462 13.1097C3.1919 12.947 3.1919 12.6832 3.35462 12.5204C3.51734 12.3577 3.78116 12.3577 3.94388 12.5204L5.41794 13.9945L6.89277 12.5205C7.05549 12.3578 7.3193 12.3578 7.48202 12.5205C7.64475 12.6832 7.64475 12.9471 7.48202 13.1097Z" fill="#CACDCD"/>
</svg>
