<svg width="24" height="24" viewBox="0 0 24 24" fill="none" xmlns="http://www.w3.org/2000/svg">
<path d="M22.7699 19.32L21.6999 18.5C21.7199 18.33 21.7399 18.17 21.7399 18C21.7399 17.83 21.7299 17.67 21.6999 17.5L22.7599 16.68C22.8499 16.6 22.8799 16.47 22.8199 16.36L21.8199 14.63C21.7599 14.5 21.6299 14.5 21.4999 14.5L20.2699 15C19.9999 14.82 19.7299 14.65 19.4199 14.53L19.2299 13.21C19.2199 13.09 19.1099 13 18.9999 13H16.9999C16.8699 13 16.7599 13.09 16.7399 13.21L16.5499 14.53C16.2499 14.66 15.9599 14.82 15.6999 15L14.4599 14.5C14.3499 14.5 14.2199 14.5 14.1499 14.63L13.1499 16.36C13.0899 16.47 13.1099 16.6 13.2099 16.68L14.2699 17.5C14.2499 17.67 14.2399 17.83 14.2399 18C14.2399 18.17 14.2499 18.33 14.2699 18.5L13.2099 19.32C13.1199 19.4 13.0899 19.53 13.1499 19.64L14.1499 21.37C14.2099 21.5 14.3399 21.5 14.4599 21.5L15.6999 21C15.9599 21.18 16.2399 21.35 16.5499 21.47L16.7399 22.79C16.7599 22.91 16.8599 23 16.9999 23H18.9999C19.1099 23 19.2199 22.91 19.2399 22.79L19.4299 21.47C19.7299 21.34 19.9999 21.18 20.2699 21L21.4999 21.5C21.6299 21.5 21.7599 21.5 21.8299 21.37L22.8299 19.64C22.8899 19.53 22.8599 19.4 22.7699 19.32ZM17.9999 19.5C17.1599 19.5 16.4999 18.83 16.4999 18C16.4999 17.17 17.1699 16.5 17.9999 16.5C18.8299 16.5 19.4999 17.17 19.4999 18C19.4999 18.83 18.8299 19.5 17.9999 19.5ZM17.6199 3.22C17.4299 3.08 17.2199 3 16.9999 3H2.99986C2.77986 3 2.56986 3.08 2.37986 3.22C1.94986 3.56 1.86986 4.19 2.20986 4.62L6.99986 10.75V15.87C6.95986 16.16 7.05986 16.47 7.28986 16.7L11.2999 20.71C11.3999 20.81 11.4999 20.88 11.6499 20.93C11.2199 20 10.9999 19 10.9999 18C10.9999 16.17 11.7199 14.41 12.9999 13.1V10.75L17.7899 4.62C18.1299 4.19 18.0499 3.56 17.6199 3.22ZM10.9999 10.05V17.58L8.99986 15.58V10.06L5.03986 5H14.9599L10.9999 10.05Z" fill="#FBE9D0" stroke="#FBE9D0"/>
</svg>
