<svg width="24" height="24" viewBox="0 0 24 24" fill="none" xmlns="http://www.w3.org/2000/svg">
<path d="M11.9999 7C10.8506 6.99925 9.73611 7.39445 8.84405 8.11908C7.95199 8.84372 7.3368 9.85354 7.10203 10.9786C6.86725 12.1036 7.02722 13.2752 7.55501 14.2962C8.0828 15.3171 8.94619 16.125 9.99986 16.584V19H13.9999V16.584C15.0525 16.1243 15.9149 15.3162 16.4419 14.2955C16.9689 13.2748 17.1285 12.1039 16.8939 10.9794C16.6592 9.85492 16.0446 8.84551 15.1534 8.12082C14.2621 7.39613 13.1486 7.00035 11.9999 7Z" fill="#FBE9D0" stroke="#FBE9D0"/>
<path d="M21 12H22M18.5 5.5L19.5 4.5M12 3V2M5.5 5.5L4.5 4.5M3 12H2M10 22H14M17 12C16.9997 11.0986 16.7558 10.2141 16.294 9.43993C15.8323 8.66581 15.1698 8.03092 14.3768 7.60245C13.5837 7.17397 12.6896 6.96784 11.789 7.00588C10.8884 7.04391 10.0149 7.3247 9.26079 7.81851C8.50671 8.31233 7.90014 9.00082 7.50527 9.81112C7.11041 10.6214 6.94194 11.5234 7.01769 12.4216C7.09343 13.3198 7.41058 14.1808 7.93557 14.9135C8.46056 15.6463 9.17386 16.2234 10 16.584V19H14V16.584C14.8918 16.1946 15.6507 15.5536 16.1835 14.7393C16.7164 13.9251 17.0001 12.9731 17 12Z" stroke="#FBE9D0" stroke-width="2" stroke-linecap="round" stroke-linejoin="round"/>
</svg>
