<svg width="32" height="32" viewBox="0 0 32 32" fill="none" xmlns="http://www.w3.org/2000/svg">
<path d="M3.36402 0C3.06668 0 2.91602 0.148 2.91602 0.373333V31.6253C2.91602 31.8867 3.06668 31.9613 3.36402 31.9613H10.8227C11.1213 31.9613 11.2693 31.8493 11.232 31.6253V29.648C11.232 29.4253 11.0453 29.312 10.748 29.312H7.39068C7.05468 29.312 6.90668 29.2013 6.90668 28.94V3.05733C6.90668 2.796 7.05602 2.648 7.46668 2.648H10.784C11.0827 2.648 11.232 2.57333 11.232 2.312V0.373333C11.232 0.112 11.0453 0 10.7467 0H3.36402ZM15.0973 0.0266667C14.7987 0.0266667 14.612 0.137333 14.612 0.398667V2.26267C14.612 2.524 14.7613 2.636 15.06 2.636H15.656C18.528 2.636 20.5413 4.91067 20.5413 7.18533V13.0787C20.5413 14.9053 21.848 16.4347 23.8987 17.3667C24.048 17.4413 24.084 17.5533 24.084 17.628C24.084 17.7027 24.048 17.7773 23.8974 17.8147C21.6614 18.636 20.5413 20.8733 20.5413 22.476V27.6973C20.5413 30.0107 18.528 29.3747 15.656 29.3747H15.06C14.7613 29.3747 14.612 29.4867 14.612 29.748V31.612C14.612 31.8733 14.7987 31.9853 15.096 31.9853H15.8427C20.6547 31.9853 24.5307 32.432 24.5307 28.3667V22.924C24.5307 21.0227 25.8747 19.864 27.8507 19.3053C28.7467 19.044 29.1173 18.896 29.0814 18.5587V16.9947C29.0814 16.3987 28.6707 16.3587 27.924 16.136C25.9107 15.4267 24.5707 14.3467 24.5707 12.4827V7.52C24.5707 3.45333 20.6547 0.0253333 15.844 0.0253333H15.0973V0.0266667ZM15.3413 11.2213C14.8933 11.2213 14.4813 11.5573 14.4813 12.0053V13.7947C14.4813 14.204 14.856 14.5787 15.3413 14.5787H17.3173C17.7653 14.5787 18.1747 14.2413 18.1747 13.7947V12.0053C18.1747 11.5947 17.8013 11.2213 17.3173 11.2213H15.3413Z" fill="#CACDCD"/>
</svg>
