<svg width="104" height="27" viewBox="0 0 104 27" fill="none" xmlns="http://www.w3.org/2000/svg">
<path d="M38.7578 22V5.24219H41.8633L50.7109 17.4531V5.24219H53.6992V22H50.5938L41.7461 9.53125V22H38.7578ZM59.4531 15.8008C59.4531 18.3711 60.4492 19.6562 62.4414 19.6562C64.4336 19.6562 65.4297 18.3711 65.4297 15.8008C65.4297 13.293 64.4336 12.0391 62.4414 12.0391C60.4492 12.0391 59.4531 13.293 59.4531 15.8008ZM56.3477 15.8477C56.3477 11.7227 58.3789 9.66016 62.4414 9.66016C66.5039 9.66016 68.5352 11.7227 68.5352 15.8477C68.5352 19.9648 66.5039 22.0234 62.4414 22.0234C58.3945 22.0234 56.3633 19.9648 56.3477 15.8477ZM70.8789 22V9.69531H73.2812L73.6445 11.4766C74.7461 10.2891 76.0703 9.69531 77.6172 9.69531C79.1641 9.69531 80.2227 10.2578 80.793 11.3828C82.0508 10.2578 83.3672 9.69531 84.7422 9.69531C87.5703 9.69531 88.9844 11.2539 88.9844 14.3711V22H85.8789V14.2539C85.8789 12.8867 85.2617 12.2031 84.0273 12.2031C83.1055 12.2031 82.2188 12.6172 81.3672 13.4453V22H78.2617V14.2891C78.2617 12.8984 77.6914 12.2031 76.5508 12.2031C75.6445 12.2031 74.7891 12.6172 73.9844 13.4453V22H70.8789ZM97.1172 9.69531C100.852 9.69531 102.719 11.6016 102.719 15.4141C102.719 15.9219 102.684 16.4297 102.613 16.9375H94.4453C94.4453 18.6719 95.7188 19.5391 98.2656 19.5391C99.5078 19.5391 100.75 19.4219 101.992 19.1875V21.6484C100.906 21.8828 99.5859 22 98.0312 22C93.5703 22 91.3398 19.9023 91.3398 15.707C91.3398 11.6992 93.2656 9.69531 97.1172 9.69531ZM94.4453 14.7812H99.6953V14.6875C99.6953 12.9844 98.8359 12.1328 97.1172 12.1328C95.4766 12.1328 94.5859 13.0156 94.4453 14.7812Z" fill="#FBE9D0"/>
<path d="M15 18L11 22H21V18H15ZM12.06 9.19L3 18.25V22H6.75L15.81 12.94L12.06 9.19ZM5.92 20H5V19.08L12.06 12L13 12.94L5.92 20ZM18.71 10.04C19.1 9.65 19.1 9 18.71 8.63L16.37 6.29C16.17 6.09 15.92 6 15.66 6C15.41 6 15.15 6.1 14.96 6.29L13.13 8.12L16.88 11.87L18.71 10.04Z" fill="#FBE9D0" stroke="#FBE9D0"/>
</svg>
