<svg width="32" height="32" viewBox="0 0 32 32" fill="none" xmlns="http://www.w3.org/2000/svg">
<path d="M13.9999 2.66675C16.1278 2.66661 18.2128 3.26556 20.0163 4.39506C21.8197 5.52456 23.2687 7.13897 24.1975 9.05354C25.1262 10.9681 25.4972 13.1055 25.268 15.221C25.0387 17.3366 24.2185 19.3449 22.9012 21.0161L27.7705 25.8854C28.0134 26.1369 28.1478 26.4737 28.1447 26.8233C28.1417 27.1729 28.0015 27.5073 27.7543 27.7545C27.5071 28.0017 27.1726 28.1419 26.8231 28.145C26.4735 28.148 26.1367 28.0136 25.8852 27.7707L21.0159 22.9014C19.5964 24.02 17.9301 24.783 16.1559 25.1266C14.3816 25.4703 12.5509 25.3846 10.8165 24.8769C9.08212 24.3691 7.49429 23.4539 6.1855 22.2077C4.87671 20.9615 3.88493 19.4203 3.29289 17.7129C2.70085 16.0054 2.52573 14.1811 2.78213 12.3921C3.03853 10.6032 3.71902 8.90153 4.76683 7.42909C5.81464 5.95664 7.19938 4.75611 8.80553 3.92767C10.4117 3.09923 12.1926 2.6669 13.9999 2.66675ZM13.9999 5.33341C11.7013 5.33341 9.49691 6.24651 7.87159 7.87182C6.24628 9.49714 5.33318 11.7015 5.33318 14.0001C5.33318 16.2986 6.24628 18.503 7.87159 20.1283C9.49691 21.7537 11.7013 22.6667 13.9999 22.6667C16.2984 22.6667 18.5028 21.7537 20.1281 20.1283C21.7534 18.503 22.6665 16.2986 22.6665 14.0001C22.6665 11.7015 21.7534 9.49714 20.1281 7.87182C18.5028 6.24651 16.2984 5.33341 13.9999 5.33341ZM13.9999 6.66675C15.9448 6.66675 17.81 7.43936 19.1853 8.81463C20.5606 10.1899 21.3332 12.0552 21.3332 14.0001C21.3332 15.945 20.5606 17.8103 19.1853 19.1855C17.81 20.5608 15.9448 21.3334 13.9999 21.3334C12.0549 21.3334 10.1897 20.5608 8.8144 19.1855C7.43913 17.8103 6.66652 15.945 6.66652 14.0001C6.66652 12.0552 7.43913 10.1899 8.8144 8.81463C10.1897 7.43936 12.0549 6.66675 13.9999 6.66675Z" fill="#FBE9D0"/>
</svg>
