<svg width="32" height="32" viewBox="0 0 32 32" fill="none" xmlns="http://www.w3.org/2000/svg">
<g clip-path="url(#clip0_34_299)">
<path d="M13.9999 2.66663C16.1278 2.66648 18.2128 3.26543 20.0163 4.39493C21.8197 5.52443 23.2687 7.13885 24.1975 9.05342C25.1262 10.968 25.4972 13.1054 25.268 15.2209C25.0387 17.3365 24.2185 19.3448 22.9012 21.016L27.7705 25.8853C28.0134 26.1368 28.1478 26.4736 28.1447 26.8232C28.1417 27.1728 28.0015 27.5072 27.7543 27.7544C27.5071 28.0016 27.1726 28.1418 26.8231 28.1449C26.4735 28.1479 26.1367 28.0135 25.8852 27.7706L21.0159 22.9013C19.5964 24.0199 17.9301 24.7829 16.1559 25.1265C14.3816 25.4702 12.5509 25.3845 10.8165 24.8768C9.08212 24.369 7.49429 23.4538 6.1855 22.2076C4.87671 20.9614 3.88493 19.4202 3.29289 17.7127C2.70085 16.0053 2.52573 14.1809 2.78213 12.392C3.03853 10.6031 3.71902 8.90141 4.76683 7.42896C5.81464 5.95652 7.19938 4.75599 8.80553 3.92755C10.4117 3.09911 12.1926 2.66678 13.9999 2.66663ZM13.9999 5.33329C11.7013 5.33329 9.49691 6.24638 7.87159 7.8717C6.24628 9.49701 5.33318 11.7014 5.33318 14C5.33318 16.2985 6.24628 18.5029 7.87159 20.1282C9.49691 21.7535 11.7013 22.6666 13.9999 22.6666C16.2984 22.6666 18.5028 21.7535 20.1281 20.1282C21.7534 18.5029 22.6665 16.2985 22.6665 14C22.6665 11.7014 21.7534 9.49701 20.1281 7.8717C18.5028 6.24638 16.2984 5.33329 13.9999 5.33329ZM13.9999 6.66663C15.9448 6.66663 17.81 7.43924 19.1853 8.81451C20.5606 10.1898 21.3332 12.055 21.3332 14C21.3332 15.9449 20.5606 17.8101 19.1853 19.1854C17.81 20.5607 15.9448 21.3333 13.9999 21.3333C12.0549 21.3333 10.1897 20.5607 8.8144 19.1854C7.43913 17.8101 6.66652 15.9449 6.66652 14C6.66652 12.055 7.43913 10.1898 8.8144 8.81451C10.1897 7.43924 12.0549 6.66663 13.9999 6.66663Z" fill="#FBE9D0"/>
</g>
<defs>
<clipPath id="clip0_34_299">
<rect width="32" height="32" fill="white"/>
</clipPath>
</defs>
</svg>
