<svg width="24" height="24" viewBox="0 0 24 24" fill="none" xmlns="http://www.w3.org/2000/svg">
<path d="M16.5 14.25H19.5C19.8978 14.25 20.2794 14.092 20.5607 13.8107C20.842 13.5294 21 13.1478 21 12.75V9.75C21 9.35218 20.842 8.97064 20.5607 8.68934C20.2794 8.40804 19.8978 8.25 19.5 8.25H16.5C16.1022 8.25 15.7206 8.40804 15.4393 8.68934C15.158 8.97064 15 9.35218 15 9.75V10.5H8.25V7.5H9C9.39782 7.5 9.77936 7.34196 10.0607 7.06066C10.342 6.77936 10.5 6.39782 10.5 6V3C10.5 2.60218 10.342 2.22064 10.0607 1.93934C9.77936 1.65804 9.39782 1.5 9 1.5H6C5.60218 1.5 5.22064 1.65804 4.93934 1.93934C4.65804 2.22064 4.5 2.60218 4.5 3V6C4.5 6.39782 4.65804 6.77936 4.93934 7.06066C5.22064 7.34196 5.60218 7.5 6 7.5H6.75V18C6.75 18.5967 6.98705 19.169 7.40901 19.591C7.83097 20.0129 8.40326 20.25 9 20.25H15V21C15 21.3978 15.158 21.7794 15.4393 22.0607C15.7206 22.342 16.1022 22.5 16.5 22.5H19.5C19.8978 22.5 20.2794 22.342 20.5607 22.0607C20.842 21.7794 21 21.3978 21 21V18C21 17.6022 20.842 17.2206 20.5607 16.9393C20.2794 16.658 19.8978 16.5 19.5 16.5H16.5C16.1022 16.5 15.7206 16.658 15.4393 16.9393C15.158 17.2206 15 17.6022 15 18V18.75H9C8.80109 18.75 8.61032 18.671 8.46967 18.5303C8.32902 18.3897 8.25 18.1989 8.25 18V12H15V12.75C15 13.1478 15.158 13.5294 15.4393 13.8107C15.7206 14.092 16.1022 14.25 16.5 14.25ZM6 3H9V6H6V3ZM16.5 18H19.5V21H16.5V18ZM16.5 9.75H19.5V12.75H16.5V9.75Z" fill="#FBE9D0"/>
</svg>
