<svg width="24" height="24" viewBox="0 0 24 24" fill="none" xmlns="http://www.w3.org/2000/svg">
<path d="M11.3179 12.545H7.90995V10.636H11.3199V12.546L11.3179 12.545ZM14.7279 0V6H20.7279L14.7279 0ZM16.0909 10.636H12.6809V12.546H16.0909V10.636ZM16.0909 13.909H12.6809V15.819H16.0909V13.909ZM20.7269 6.5V22.364C20.7269 23.268 19.9949 24 19.0909 24H4.90895C4.69411 24 4.48137 23.9577 4.28288 23.8755C4.08439 23.7933 3.90404 23.6727 3.75212 23.5208C3.44531 23.214 3.27295 22.7979 3.27295 22.364V1.636C3.27295 0.732 4.00495 0 4.90895 0H14.2269V6.5H20.7269ZM17.4539 9.273H6.54495V17.182H17.4549V9.272L17.4539 9.273ZM11.3179 13.909H7.90995V15.819H11.3199V13.909H11.3179Z" fill="#FBE9D0"/>
</svg>
