<svg width="44" height="44" viewBox="0 0 44 44" fill="none" xmlns="http://www.w3.org/2000/svg">
<path fill-rule="evenodd" clip-rule="evenodd" d="M22.0002 3.6665V15.5832C22.0002 16.2668 22.2548 16.9259 22.7145 17.4319C23.1741 17.938 23.8057 18.2547 24.4862 18.3203L24.7502 18.3332H36.6668V36.6665C36.6671 37.5916 36.3178 38.4825 35.6888 39.1608C35.0598 39.8391 34.1976 40.2546 33.2752 40.324L33.0002 40.3332H11.0002C10.0751 40.3335 9.18412 39.9841 8.50582 39.3551C7.82753 38.7261 7.41204 37.864 7.34266 36.9415L7.3335 36.6665V7.33317C7.3332 6.40811 7.68257 5.51713 8.31157 4.83883C8.94057 4.16053 9.80271 3.74505 10.7252 3.67567L11.0002 3.6665H22.0002ZM20.704 20.4837L16.8155 24.3722C16.6404 24.5413 16.5007 24.7436 16.4046 24.9673C16.3086 25.1909 16.258 25.4315 16.2559 25.6749C16.2538 25.9184 16.3001 26.1598 16.3923 26.3851C16.4845 26.6104 16.6206 26.8151 16.7928 26.9872C16.9649 27.1594 17.1696 27.2955 17.3949 27.3877C17.6202 27.4799 17.8616 27.5262 18.1051 27.5241C18.3485 27.522 18.5891 27.4714 18.8127 27.3754C19.0364 27.2793 19.2387 27.1396 19.4078 26.9645L20.1668 26.2055V31.1665C20.1668 31.6527 20.36 32.1191 20.7038 32.4629C21.0476 32.8067 21.5139 32.9998 22.0002 32.9998C22.4864 32.9998 22.9527 32.8067 23.2965 32.4629C23.6403 32.1191 23.8335 31.6527 23.8335 31.1665V26.2055L24.5925 26.9645C24.7616 27.1396 24.9639 27.2793 25.1876 27.3754C25.4113 27.4714 25.6518 27.522 25.8953 27.5241C26.1387 27.5262 26.3801 27.4799 26.6054 27.3877C26.8307 27.2955 27.0354 27.1594 27.2076 26.9872C27.3797 26.8151 27.5158 26.6104 27.608 26.3851C27.7002 26.1598 27.7466 25.9184 27.7445 25.6749C27.7423 25.4315 27.6918 25.1909 27.5957 24.9673C27.4996 24.7436 27.3599 24.5413 27.1848 24.3722L23.2982 20.4837C23.1279 20.3132 22.9257 20.178 22.7031 20.0857C22.4806 19.9935 22.242 19.946 22.0011 19.946C21.7602 19.946 21.5216 19.9935 21.299 20.0857C21.0765 20.178 20.8743 20.3132 20.704 20.4837ZM25.6668 3.74534C26.2597 3.8712 26.8121 4.14205 27.2747 4.53367L27.5002 4.74084L35.5925 12.8332C36.0221 13.2624 36.3383 13.7915 36.5128 14.3732L36.5862 14.6665H25.6668V3.74534Z" fill="#FBE9D0"/>
</svg>
