<svg width="44" height="44" viewBox="0 0 44 44" fill="none" xmlns="http://www.w3.org/2000/svg">
<path d="M28.4165 3.6665C32.9998 3.6665 36.6665 7.33317 36.6665 11.9165C36.6665 13.5298 36.2082 15.0515 35.4015 16.3165L41.0482 21.9998L38.4998 24.5482L32.7798 18.9198C31.5148 19.7082 30.0115 20.1665 28.4165 20.1665C23.8332 20.1665 20.1665 16.4998 20.1665 11.9165C20.1665 7.33317 23.8332 3.6665 28.4165 3.6665ZM28.4165 7.33317C27.2009 7.33317 26.0351 7.81606 25.1756 8.6756C24.3161 9.53514 23.8332 10.7009 23.8332 11.9165C23.8332 13.1321 24.3161 14.2979 25.1756 15.1574C26.0351 16.017 27.2009 16.4998 28.4165 16.4998C29.6321 16.4998 30.7979 16.017 31.6574 15.1574C32.517 14.2979 32.9998 13.1321 32.9998 11.9165C32.9998 10.7009 32.517 9.53514 31.6574 8.6756C30.7979 7.81606 29.6321 7.33317 28.4165 7.33317ZM13.7498 26.5832L7.33317 34.8332H32.9998L24.7498 23.8332L18.3332 32.0832L13.7498 26.5832ZM36.6665 36.6665C36.6665 37.639 36.2802 38.5716 35.5926 39.2592C34.9049 39.9469 33.9723 40.3332 32.9998 40.3332H7.33317C6.36071 40.3332 5.42808 39.9469 4.74045 39.2592C4.05281 38.5716 3.6665 37.639 3.6665 36.6665V10.9998C3.6665 10.0274 4.05281 9.09475 4.74045 8.40711C5.42808 7.71948 6.36071 7.33317 7.33317 7.33317H17.4165C16.8298 8.74484 16.4998 10.2848 16.4998 11.9165C16.4998 15.077 17.7553 18.1081 19.9901 20.3429C22.225 22.5777 25.256 23.8332 28.4165 23.8332C29.6632 23.8332 30.8732 23.6315 32.0098 23.2832L36.6665 27.9398V36.6665Z" fill="#FBE9D0" stroke="#FBE9D0"/>
</svg>
