<svg width="64" height="64" viewBox="0 0 64 64" fill="none" xmlns="http://www.w3.org/2000/svg">
<path d="M32 16C30.0222 16 28.0888 16.5865 26.4443 17.6853C24.7998 18.7841 23.5181 20.3459 22.7612 22.1732C22.0043 24.0004 21.8063 26.0111 22.1922 27.9509C22.578 29.8907 23.5304 31.6725 24.9289 33.0711C26.3275 34.4696 28.1093 35.422 30.0491 35.8079C31.9889 36.1937 33.9996 35.9957 35.8268 35.2388C37.6541 34.4819 39.2159 33.2002 40.3147 31.5557C41.4135 29.9112 42 27.9778 42 26C42 23.3478 40.9464 20.8043 39.0711 18.9289C37.1957 17.0536 34.6522 16 32 16ZM32 32C30.8133 32 29.6533 31.6481 28.6666 30.9888C27.6799 30.3295 26.9109 29.3925 26.4567 28.2961C26.0026 27.1997 25.8838 25.9933 26.1153 24.8295C26.3468 23.6656 26.9182 22.5965 27.7574 21.7574C28.5965 20.9182 29.6656 20.3468 30.8295 20.1153C31.9934 19.8838 33.1997 20.0026 34.2961 20.4567C35.3925 20.9108 36.3295 21.6799 36.9888 22.6666C37.6481 23.6533 38 24.8133 38 26C37.9982 27.5907 37.3655 29.1158 36.2407 30.2407C35.1158 31.3655 33.5908 31.9982 32 32Z" fill="#FBE9D0" stroke="#FBE9D0" stroke-width="0.75"/>
<path d="M32 4C26.4621 4 21.0486 5.64217 16.444 8.71885C11.8395 11.7955 8.25064 16.1685 6.13139 21.2849C4.01213 26.4012 3.45764 32.0311 4.53802 37.4625C5.61841 42.894 8.28515 47.8831 12.201 51.799C16.1169 55.7149 21.106 58.3816 26.5375 59.462C31.969 60.5424 37.5988 59.9879 42.7151 57.8686C47.8315 55.7494 52.2045 52.1605 55.2812 47.556C58.3578 42.9514 60 37.5379 60 32C59.9916 24.5765 57.039 17.4595 51.7898 12.2102C46.5406 6.96104 39.4235 4.00836 32 4ZM20 52.753V50C20.0018 48.4092 20.6345 46.8841 21.7593 45.7593C22.8841 44.6344 24.4093 44.0017 26 44H38C39.5908 44.0017 41.1159 44.6344 42.2407 45.7593C43.3656 46.8841 43.9983 48.4092 44 50V52.753C40.3584 54.8794 36.217 56 32 56C27.783 56 23.6417 54.8794 20 52.753ZM47.985 49.8516C47.9453 47.2281 46.8763 44.7252 45.0086 42.8824C43.1408 41.0397 40.6238 40.0045 38 40H26C23.3762 40.0045 20.8592 41.0397 18.9915 42.8824C17.1237 44.7252 16.0548 47.2281 16.015 49.8516C12.3881 46.6131 9.83047 42.3493 8.68068 37.6249C7.53089 32.9005 7.84321 27.9383 9.57629 23.3953C11.3094 18.8524 14.3815 14.9429 18.3858 12.1847C22.3901 9.42653 27.1377 7.94965 32 7.94965C36.8623 7.94965 41.61 9.42653 45.6143 12.1847C49.6186 14.9429 52.6907 18.8524 54.4237 23.3953C56.1568 27.9383 56.4691 32.9005 55.3193 37.6249C54.1696 42.3493 51.6119 46.6131 47.985 49.8516Z" fill="#FBE9D0" stroke="#FBE9D0" stroke-width="0.75"/>
</svg>
