<svg width="24" height="24" viewBox="0 0 24 24" fill="none" xmlns="http://www.w3.org/2000/svg">
<path d="M22.5241 17.4467L14.3257 3.20886C14.0882 2.80275 13.7486 2.46588 13.3405 2.23179C12.9325 1.99769 12.4702 1.87451 11.9998 1.87451C11.5293 1.87451 11.0671 1.99769 10.659 2.23179C10.251 2.46588 9.91129 2.80275 9.67383 3.20886L1.47539 17.4467C1.24497 17.8408 1.12354 18.2891 1.12354 18.7456C1.12354 19.2021 1.24497 19.6504 1.47539 20.0445C1.71022 20.4526 2.04941 20.7909 2.45816 21.0247C2.8669 21.2585 3.33048 21.3793 3.80133 21.3748H20.1982C20.6687 21.379 21.1319 21.258 21.5403 21.0242C21.9487 20.7905 22.2876 20.4523 22.5223 20.0445C22.753 19.6506 22.8747 19.2023 22.8751 18.7458C22.8754 18.2893 22.7543 17.8409 22.5241 17.4467ZM20.5741 18.9185C20.536 18.9835 20.481 19.037 20.415 19.0733C20.349 19.1096 20.2744 19.1274 20.1991 19.1248H3.80133C3.72604 19.1274 3.65145 19.1096 3.58544 19.0733C3.51943 19.037 3.46446 18.9835 3.42633 18.9185C3.39399 18.866 3.37687 18.8054 3.37687 18.7437C3.37687 18.682 3.39399 18.6214 3.42633 18.5689L11.6248 4.33105C11.6654 4.26856 11.7209 4.21721 11.7864 4.18165C11.8519 4.1461 11.9253 4.12748 11.9998 4.12748C12.0743 4.12748 12.1476 4.1461 12.2131 4.18165C12.2786 4.21721 12.3342 4.26856 12.3748 4.33105L20.5723 18.5689C20.6049 18.6213 20.6223 18.6817 20.6227 18.7434C20.623 18.8052 20.6062 18.8658 20.5741 18.9185ZM10.8748 12.7498V9.7498C10.8748 9.45143 10.9933 9.16528 11.2043 8.9543C11.4152 8.74332 11.7014 8.6248 11.9998 8.6248C12.2981 8.6248 12.5843 8.74332 12.7953 8.9543C13.0062 9.16528 13.1248 9.45143 13.1248 9.7498V12.7498C13.1248 13.0482 13.0062 13.3343 12.7953 13.5453C12.5843 13.7563 12.2981 13.8748 11.9998 13.8748C11.7014 13.8748 11.4152 13.7563 11.2043 13.5453C10.9933 13.3343 10.8748 13.0482 10.8748 12.7498ZM13.4998 16.4998C13.4998 16.7965 13.4118 17.0865 13.247 17.3332C13.0821 17.5798 12.8479 17.7721 12.5738 17.8856C12.2997 17.9991 11.9981 18.0289 11.7071 17.971C11.4162 17.9131 11.1489 17.7702 10.9391 17.5605C10.7293 17.3507 10.5865 17.0834 10.5286 16.7924C10.4707 16.5015 10.5004 16.1999 10.6139 15.9258C10.7275 15.6517 10.9197 15.4174 11.1664 15.2526C11.4131 15.0878 11.7031 14.9998 11.9998 14.9998C12.3976 14.9998 12.7791 15.1578 13.0604 15.4391C13.3417 15.7204 13.4998 16.102 13.4998 16.4998Z" fill="#FBE9D0"/>
</svg>
