<svg width="20" height="20" viewBox="0 0 20 20" fill="none" xmlns="http://www.w3.org/2000/svg">
<path d="M10.0381 0.5H10.0391C11.2816 0.495352 12.5135 0.737002 13.6611 1.21094C14.6651 1.62559 15.5873 2.21121 16.3877 2.93945L16.7236 3.25977L16.7266 3.2627C17.6069 4.13465 18.304 5.17155 18.7803 6.31348C19.197 7.31259 19.4367 8.37501 19.4893 9.45312L19.5 9.91602C19.4951 15.1032 15.2532 19.329 10.043 19.3291H10.0371C8.4579 19.3303 6.90367 18.9363 5.51758 18.1836L5.34375 18.0889L5.15234 18.1387L0.709961 19.2979L1.88965 14.9961L1.94531 14.7949L1.84082 14.6143C1.01669 13.1836 0.580195 11.5685 0.580078 9.9082C0.584845 4.72608 4.82872 0.5 10.0381 0.5ZM10.042 1.17285C5.20595 1.17323 1.26724 5.09108 1.2666 9.90137C1.26347 11.5464 1.72885 13.1586 2.6084 14.5508L2.68652 14.6758L1.9082 17.5059L1.67871 18.3418L2.5166 18.1221L5.44434 17.3574L5.56738 17.4307L5.57031 17.4316C6.92314 18.2286 8.46549 18.6501 10.0371 18.6514H10.0381C14.7203 18.6511 18.5624 14.9788 18.8027 10.3613L18.8145 9.91211C18.817 8.76418 18.5921 7.62704 18.1514 6.56641C17.7105 5.50556 17.0625 4.54185 16.2461 3.73145C15.4326 2.91862 14.4658 2.27407 13.4014 1.83496C12.3364 1.39564 11.1947 1.17082 10.042 1.17285ZM6.96191 5.83887L6.97266 5.83984C6.99403 5.84071 7.01526 5.83997 7.03223 5.83984C7.04657 5.86379 7.06623 5.90041 7.08887 5.95508V5.95605L7.0918 5.96094C7.19526 6.20393 7.36947 6.62844 7.52832 7.0127C7.67671 7.37165 7.82632 7.73187 7.87207 7.82422V7.8252C7.8746 7.83029 7.87618 7.835 7.87793 7.83887C7.79577 8.00585 7.78339 8.04037 7.71484 8.11816L7.71289 8.12012C7.63182 8.21306 7.56944 8.2909 7.51465 8.35742L7.36328 8.5293C7.31329 8.57879 7.1682 8.71533 7.09473 8.91016C7.00172 9.15689 7.04387 9.40935 7.1748 9.63574L7.17969 9.64258C7.31294 9.86404 7.734 10.5569 8.37402 11.2021L8.66113 11.4746C9.67416 12.3773 10.5729 12.6794 10.7666 12.7773L10.7705 12.7803C10.9275 12.8576 11.1324 12.9322 11.3604 12.9053C11.6073 12.8761 11.7829 12.74 11.9053 12.5996L11.9062 12.6006C12.0383 12.4518 12.4772 11.9333 12.6885 11.6396C12.6934 11.6414 12.6987 11.6426 12.7041 11.6445V11.6455C12.7907 11.6775 13.1259 11.8336 13.5039 12.0156C13.8674 12.1906 14.2327 12.3702 14.3535 12.4307L14.3545 12.4316C14.4206 12.4645 14.4827 12.4943 14.5312 12.5176C14.5523 12.5277 14.5706 12.5369 14.5869 12.5449C14.5863 12.5727 14.5881 12.605 14.585 12.6416C14.5707 12.808 14.5283 13.034 14.4404 13.2822C14.3939 13.4103 14.2137 13.6118 13.9023 13.8105C13.603 14.0016 13.3014 14.1145 13.1553 14.1367C12.7645 14.1921 12.3121 14.2119 11.8184 14.0547H11.8174C11.4603 13.9415 11.0149 13.7958 10.4482 13.5498H10.4463C8.09742 12.5388 6.5488 10.1696 6.40234 9.97168L6.39941 9.96777L6.20508 9.69336C6.11229 9.5536 5.99977 9.36983 5.89062 9.15625C5.66862 8.72181 5.48351 8.20548 5.4834 7.70801C5.4834 6.94843 5.77055 6.49184 6.00879 6.20898L6.21875 5.97949L6.22559 5.97168C6.26336 5.92903 6.31022 5.89433 6.3623 5.87012C6.41374 5.84627 6.4695 5.83275 6.52637 5.83105C6.69302 5.83107 6.83977 5.83142 6.96191 5.83887Z" fill="#FBE9D0" stroke="#FBE9D0"/>
</svg>
