<svg width="72" height="72" viewBox="0 0 72 72" fill="none" xmlns="http://www.w3.org/2000/svg">
<path d="M36 6C52.569 6 66 19.431 66 36C66 52.569 52.569 66 36 66C19.431 66 6 52.569 6 36C6 19.431 19.431 6 36 6ZM29.637 25.392C29.0984 24.8482 28.3723 24.5309 27.6074 24.505C26.8424 24.479 26.0965 24.7464 25.5223 25.2524C24.948 25.7584 24.5889 26.4648 24.5184 27.2269C24.4479 27.989 24.6713 28.7492 25.143 29.352L25.395 29.637L31.755 35.997L25.395 42.363C24.8512 42.9016 24.5339 43.6277 24.508 44.3926C24.482 45.1576 24.7494 45.9035 25.2554 46.4777C25.7614 47.052 26.4678 47.4111 27.2299 47.4816C27.992 47.5521 28.7522 47.3287 29.355 46.857L29.637 46.608L36 40.242L42.363 46.608C42.9016 47.1518 43.6277 47.4691 44.3926 47.495C45.1576 47.521 45.9035 47.2536 46.4777 46.7476C47.052 46.2416 47.4111 45.5352 47.4816 44.7731C47.5521 44.011 47.3287 43.2508 46.857 42.648L46.608 42.363L40.242 36L46.608 29.637C47.1518 29.0984 47.4691 28.3723 47.495 27.6074C47.521 26.8424 47.2536 26.0965 46.7476 25.5223C46.2416 24.948 45.5352 24.5889 44.7731 24.5184C44.011 24.4479 43.2508 24.6713 42.648 25.143L42.363 25.392L36 31.758L29.637 25.392Z" fill="#FBE9D0"/>
</svg>
