<svg width="64" height="64" viewBox="0 0 64 64" fill="none" xmlns="http://www.w3.org/2000/svg">
<path d="M58 56H52V8H54C54.5304 8 55.0391 7.78929 55.4142 7.41421C55.7893 7.03914 56 6.53043 56 6C56 5.46957 55.7893 4.96086 55.4142 4.58579C55.0391 4.21071 54.5304 4 54 4H10C9.46957 4 8.96086 4.21071 8.58579 4.58579C8.21071 4.96086 8 5.46957 8 6C8 6.53043 8.21071 7.03914 8.58579 7.41421C8.96086 7.78929 9.46957 8 10 8H12V56H6C5.46957 56 4.96086 56.2107 4.58579 56.5858C4.21071 56.9609 4 57.4696 4 58C4 58.5304 4.21071 59.0391 4.58579 59.4142C4.96086 59.7893 5.46957 60 6 60H58C58.5304 60 59.0391 59.7893 59.4142 59.4142C59.7893 59.0391 60 58.5304 60 58C60 57.4696 59.7893 56.9609 59.4142 56.5858C59.0391 56.2107 58.5304 56 58 56ZM22 14H28C28.5304 14 29.0391 14.2107 29.4142 14.5858C29.7893 14.9609 30 15.4696 30 16C30 16.5304 29.7893 17.0391 29.4142 17.4142C29.0391 17.7893 28.5304 18 28 18H22C21.4696 18 20.9609 17.7893 20.5858 17.4142C20.2107 17.0391 20 16.5304 20 16C20 15.4696 20.2107 14.9609 20.5858 14.5858C20.9609 14.2107 21.4696 14 22 14ZM22 24H28C28.5304 24 29.0391 24.2107 29.4142 24.5858C29.7893 24.9609 30 25.4696 30 26C30 26.5304 29.7893 27.0391 29.4142 27.4142C29.0391 27.7893 28.5304 28 28 28H22C21.4696 28 20.9609 27.7893 20.5858 27.4142C20.2107 27.0391 20 26.5304 20 26C20 25.4696 20.2107 24.9609 20.5858 24.5858C20.9609 24.2107 21.4696 24 22 24ZM20 36C20 35.4696 20.2107 34.9609 20.5858 34.5858C20.9609 34.2107 21.4696 34 22 34H28C28.5304 34 29.0391 34.2107 29.4142 34.5858C29.7893 34.9609 30 35.4696 30 36C30 36.5304 29.7893 37.0391 29.4142 37.4142C29.0391 37.7893 28.5304 38 28 38H22C21.4696 38 20.9609 37.7893 20.5858 37.4142C20.2107 37.0391 20 36.5304 20 36ZM38 56H26V46H38V56ZM42 38H36C35.4696 38 34.9609 37.7893 34.5858 37.4142C34.2107 37.0391 34 36.5304 34 36C34 35.4696 34.2107 34.9609 34.5858 34.5858C34.9609 34.2107 35.4696 34 36 34H42C42.5304 34 43.0391 34.2107 43.4142 34.5858C43.7893 34.9609 44 35.4696 44 36C44 36.5304 43.7893 37.0391 43.4142 37.4142C43.0391 37.7893 42.5304 38 42 38ZM42 28H36C35.4696 28 34.9609 27.7893 34.5858 27.4142C34.2107 27.0391 34 26.5304 34 26C34 25.4696 34.2107 24.9609 34.5858 24.5858C34.9609 24.2107 35.4696 24 36 24H42C42.5304 24 43.0391 24.2107 43.4142 24.5858C43.7893 24.9609 44 25.4696 44 26C44 26.5304 43.7893 27.0391 43.4142 27.4142C43.0391 27.7893 42.5304 28 42 28ZM42 18H36C35.4696 18 34.9609 17.7893 34.5858 17.4142C34.2107 17.0391 34 16.5304 34 16C34 15.4696 34.2107 14.9609 34.5858 14.5858C34.9609 14.2107 35.4696 14 36 14H42C42.5304 14 43.0391 14.2107 43.4142 14.5858C43.7893 14.9609 44 15.4696 44 16C44 16.5304 43.7893 17.0391 43.4142 17.4142C43.0391 17.7893 42.5304 18 42 18Z" fill="#FBE9D0"/>
</svg>
